<?xml version="1.0" standalone="no"?>
<!DOCTYPE svg PUBLIC "-//W3C//DTD SVG 20010904//EN"
 "http://www.w3.org/TR/2001/REC-SVG-20010904/DTD/svg10.dtd">
<svg version="1.0" xmlns="http://www.w3.org/2000/svg"
 width="512.000000pt" height="512.000000pt" viewBox="0 0 512.000000 512.000000"
 preserveAspectRatio="xMidYMid meet">

<g transform="translate(0.000000,512.000000) scale(0.100000,-0.100000)">
<path d="M2390 4149 c-716 -82 -1277 -611 -1406 -1324 -24 -137 -24 -393 0
-530 92 -511 407 -935 866 -1165 713 -357 1591 -124 2035 540 364 543 362
1241 -3 1785 -223 332 -587 581 -973 663 -183 40 -354 50 -519 31z m325 -119
c344 -38 651 -186 892 -430 211 -213 346 -467 405 -762 31 -160 31 -396 0
-556 -75 -377 -286 -704 -596 -926 -444 -318 -1027 -362 -1521 -115 -274 137
-520 383 -654 654 -112 226 -155 412 -155 665 0 191 17 300 70 460 220 661
875 1086 1559 1010z"/>
<path d="M2040 2998 l-511 -433 195 -3 196 -2 0 -440 0 -440 640 0 640 0 0
440 0 440 196 2 196 3 -508 430 c-279 237 -513 431 -520 433 -7 2 -242 -192
-524 -430z m820 -718 l0 -280 -300 0 -300 0 0 280 0 280 300 0 300 0 0 -280z"/>
</g>
</svg>
